HIERARCHY
ROOT hip
{
	OFFSET 0.000000 0.000000 0.000000 
	CHANNELS 6 Xposition Yposition Zposition Xrotation Zrotation Yrotation
	JOINT abdomen
	{
		OFFSET 0.000000 3.402643 0.000000 
		CHANNELS 3 Xrotation Zrotation Yrotation
		JOINT chest
		{
			OFFSET 0.000000 8.438565 -0.680529 
			CHANNELS 3 Xrotation Zrotation Yrotation
			JOINT neck
			{
				OFFSET 0.000000 10.207942 -0.272212 
				CHANNELS 3 Xrotation Zrotation Yrotation
				JOINT head
				{
					OFFSET 0.000000 3.130431 0.000000 
					CHANNELS 3 Xrotation Zrotation Yrotation
					End Site
					{
						OFFSET 0.000000 3.130435 0.000000 
					}
				}
			}
			JOINT lCollar
			{
				OFFSET 3.470700 6.669187 -0.816635 
				CHANNELS 3 Yrotation Zrotation Xrotation
				JOINT lShldr
				{
					OFFSET 3.198488 0.000000 0.000000 
					CHANNELS 3 Zrotation Yrotation Xrotation
					JOINT lForeArm
					{
						OFFSET 10.139888 0.000000 0.000000 
						CHANNELS 3 Yrotation Zrotation Xrotation
						JOINT lHand
						{
							OFFSET 8.370511 0.000000 0.000000 
							CHANNELS 3 Zrotation Yrotation Xrotation
							End Site
							{
								OFFSET 4.083176 0.000000 0.000000 
							}
						}
					}
				}
			}
			JOINT rCollar
			{
				OFFSET -3.470700 6.669187 -0.816635 
				CHANNELS 3 Yrotation Zrotation Xrotation
				JOINT rShldr
				{
					OFFSET -3.198488 0.000000 0.000000 
					CHANNELS 3 Zrotation Yrotation Xrotation
					JOINT rForeArm
					{
						OFFSET -10.139888 0.000000 0.000000 
						CHANNELS 3 Yrotation Zrotation Xrotation
						JOINT rHand
						{
							OFFSET -8.370511 0.000000 0.000000 
							CHANNELS 3 Zrotation Yrotation Xrotation
							End Site
							{
								OFFSET -4.083176 0.000000 0.000000 
							}
						}
					}
				}
			}
		}
	}
	JOINT lThigh
	{
		OFFSET 5.308129 -1.633274 1.361059 
		CHANNELS 3 Xrotation Zrotation Yrotation
		JOINT lShin
		{
			OFFSET -2.041588 -20.007561 0.000000 
			CHANNELS 3 Xrotation Zrotation Yrotation
			JOINT lFoot
			{
				OFFSET 0.000000 -19.190928 -1.224953 
				CHANNELS 3 Xrotation Yrotation Zrotation
				End Site
				{
					OFFSET 0.000000 -2.449906 4.627600 
				}
			}
		}
	}
	JOINT rThigh
	{
		OFFSET -5.308129 -1.633274 1.361059 
		CHANNELS 3 Xrotation Zrotation Yrotation
		JOINT rShin
		{
			OFFSET 2.041588 -20.007561 0.000000 
			CHANNELS 3 Xrotation Zrotation Yrotation
			JOINT rFoot
			{
				OFFSET 0.000000 -19.190928 -1.224953 
				CHANNELS 3 Xrotation Yrotation Zrotation
				End Site
				{
					OFFSET 0.000000 -2.449906 4.627600 
				}
			}
		}
	}
}
MOTION
Frames: 16
Frame Time: 0.011111
15.023692 48.830517 -105.569778 21.665016 1.054170 -3.574527 -5.425608 2.629964 0.337984 -16.496506 -0.456911 -0.185582 -19.889431 -2.147393 -3.134079 57.301620 8.888840 -3.420727 -5.788594 -15.737329 -1.465587 -57.950619 -12.857102 7.395886 -56.573841 8.901659 10.894743 8.524705 12.647240 -47.347057 7.611086 14.174596 -1.900835 54.546494 8.662225 15.923005 46.094852 -6.708439 6.623738 -8.534408 -12.637552 53.870953 -19.708797 5.434634 14.812650 53.728703 -3.430390 -7.575282 -22.519060 7.056254 0.158414 -40.655716 1.210768 -5.275071 43.524319 4.391649 6.474963 -62.017010 -3.675762 -15.241453 
15.078746 48.846516 -105.624184 21.567488 1.107307 -3.143253 -5.673424 2.416602 0.048754 -15.842388 -0.363612 -0.254733 -19.353617 -2.180730 -3.129092 56.488319 8.999102 -3.404674 -5.788594 -15.737329 -1.465587 -57.934456 -13.199051 7.356628 -56.637527 8.911093 10.926591 8.524705 12.647240 -47.542370 7.611086 14.174596 -1.900835 54.429955 8.982757 16.001768 45.940029 -6.665174 6.570190 -8.534408 -12.637552 53.958839 -19.813940 5.185576 13.919560 52.679195 -3.543141 -7.474357 -24.009302 6.759585 0.367810 -40.789402 0.956487 -5.009978 43.672081 4.372239 6.510140 -63.057835 -3.103994 -15.429122 
15.106912 48.869240 -105.712837 21.767698 1.199629 -2.370554 -4.979587 2.010655 -0.573866 -16.761101 0.018843 -0.411883 -20.525242 -2.296662 -3.079254 57.653717 8.991455 -3.336461 -5.788594 -15.737329 -1.465587 -58.060780 -13.191873 7.525058 -56.763771 8.923697 10.974110 8.524705 12.647240 -47.522842 7.611086 14.174596 -1.900835 54.121399 8.818137 16.337252 45.971035 -6.673740 6.578701 -8.534408 -12.637552 54.310406 -20.402494 4.849576 12.676311 51.580528 -3.646656 -7.362550 -25.459173 6.865958 0.744911 -41.313416 0.770760 -4.185513 43.691101 4.388658 6.497919 -64.607300 -2.157284 -15.666393 
15.207730 48.885567 -105.701958 21.262894 1.339999 -3.251094 -5.053150 1.996354 0.389565 -16.272238 -0.282183 -0.140997 -19.198801 -2.330649 -3.175130 56.453667 9.481050 -3.296321 -5.788594 -15.737329 -1.465587 -57.704975 -12.989986 8.098530 -56.934704 8.950402 11.051606 8.524705 12.647240 -47.337292 7.611086 14.174596 -1.900835 54.396275 8.545935 15.891157 46.156666 -6.725989 6.650630 -8.534408 -12.637552 54.173687 -19.727716 4.790408 12.706087 50.421391 -3.763664 -7.260642 -27.571894 7.022575 1.317251 -40.746605 0.819939 -4.171269 43.702202 4.372088 6.493283 -63.911011 -2.579725 -15.571288 
15.194609 48.906052 -105.813667 21.088434 1.284415 -1.430450 -4.681620 1.371139 -0.965603 -16.233734 -0.012665 -0.501163 -19.341948 -2.145793 -3.296896 56.355907 9.493676 -3.453642 -5.788594 -15.737329 -1.465587 -57.481583 -13.282148 8.388716 -56.987602 8.956721 11.073730 8.524705 12.647240 -47.259167 7.611086 14.174596 -1.900835 54.497650 8.666228 15.536509 46.187469 -6.735042 6.668965 -8.534408 -12.637552 53.968605 -20.093550 4.422322 10.804340 49.420891 -3.848659 -7.126516 -28.981787 6.543378 1.456806 -40.963451 0.800791 -2.441464 43.723751 4.338687 6.501569 -67.126884 -0.288516 -15.524255 
15.208692 48.931976 -105.874481 20.600201 1.268728 -0.044663 -3.660497 0.971220 -2.132768 -16.410284 0.388803 -0.807737 -20.219166 -2.116752 -3.270204 56.919823 9.306015 -3.479156 -5.788594 -15.737329 -1.465587 -57.580105 -13.635345 8.430196 -57.082615 8.966622 11.109619 8.524705 12.647240 -47.229866 7.611086 14.174596 -1.900835 54.159592 8.901366 15.734379 46.115112 -6.712240 6.633614 -8.534408 -12.637552 54.154160 -19.998585 4.071704 9.102396 48.486794 -3.938931 -7.038236 -30.756662 6.014898 1.668083 -40.548874 0.810134 -0.817751 43.642296 4.372205 6.516529 -69.753754 1.809831 -14.969309 
15.260543 48.961418 -106.019791 21.048122 1.262776 -0.371958 -3.834426 0.823380 -1.614715 -16.976557 0.356670 -0.655937 -19.857010 -2.093556 -3.393217 56.854748 9.621950 -3.541523 -5.788594 -15.737329 -1.465587 -57.321087 -13.246800 8.828180 -57.146271 8.975288 11.141771 8.524705 12.647240 -47.268932 7.611086 14.174596 -1.900835 54.398556 8.447844 15.336775 46.094852 -6.708439 6.623738 -8.534408 -12.637552 54.134621 -20.991253 4.109486 8.585814 47.631569 -4.016840 -6.940225 -32.423309 6.153574 2.195693 -41.299629 0.995324 -0.336365 43.573494 4.381929 6.494915 -69.749245 1.906249 -14.814190 
15.446182 48.978065 -106.164467 22.954887 1.220679 -3.004155 -5.753247 1.643158 0.631331 -16.243248 -0.119545 -0.056063 -20.430513 -1.986232 -3.437452 56.755699 9.733661 -3.540575 -5.788594 -15.737329 -1.465587 -57.100323 -13.980963 8.723040 -57.136795 8.978060 11.139914 8.524705 12.647240 -47.415424 7.611086 14.174596 -1.900835 54.443073 9.033505 15.217337 46.105396 -6.713725 6.632171 -8.534408 -12.637552 54.027203 -23.499294 4.694557 9.271763 46.794731 -4.085190 -6.877687 -34.474339 6.673838 3.124475 -43.561096 1.318576 -1.918367 43.367981 4.377909 6.466006 -65.834038 -1.132050 -15.432409 
15.392411 49.020313 -106.224960 21.427109 1.466937 -0.850863 -3.502899 0.385394 -1.113837 -17.718998 0.540846 -0.501031 -20.440275 -2.043849 -3.478261 57.597790 9.927299 -3.507996 -5.788594 -15.737329 -1.465587 -57.120358 -13.227180 9.028101 -57.295444 8.996063 11.209708 8.524705 12.647240 -47.132214 7.611086 14.174596 -1.900835 54.489922 8.094796 15.328459 46.145905 -6.721318 6.651934 -8.534408 -12.637552 54.105328 -22.150724 3.854988 7.433176 45.741413 -4.182699 -6.758958 -35.387165 6.662867 3.407246 -42.023258 0.858664 0.053603 43.267620 4.401477 6.475980 -69.460480 1.622538 -14.966686 
15.479470 49.052319 -106.171829 20.482347 1.512532 -0.560764 -2.930641 0.263263 -1.361830 -17.279541 0.536329 -0.555682 -20.032360 -2.145192 -3.442075 57.185616 10.179740 -3.355806 -5.788594 -15.737329 -1.465587 -57.069569 -13.251664 9.048296 -57.359253 9.003780 11.232244 8.524705 12.647240 -46.995495 7.611086 14.174596 -1.900835 54.412422 8.095392 15.286272 45.940029 -6.665174 6.570190 -8.534408 -12.637552 54.144390 -21.246996 3.563500 6.466877 44.785694 -4.270463 -6.654058 -37.097916 6.598552 3.947348 -40.816708 0.693096 0.460147 43.080185 4.421031 6.447799 -70.148628 2.044797 -15.032744 
15.523960 49.068958 -106.309769 20.914015 1.477641 -0.146175 -3.121839 0.116791 -1.690803 -17.084299 0.570202 -0.650658 -20.382357 -2.086234 -3.464104 57.113426 10.332920 -3.296777 -5.788594 -15.737329 -1.465587 -56.873131 -13.752686 9.016240 -57.315681 8.995752 11.221546 8.524705 12.647240 -47.102921 7.611086 14.174596 -1.900835 54.496338 8.518525 14.701225 45.743961 -6.606847 6.490385 -8.534408 -12.637552 53.636574 -22.197079 3.427967 5.405377 43.779762 -4.371987 -6.528844 -38.127487 6.755232 4.400519 -41.676498 0.537342 0.443307 43.170868 4.387595 6.452717 -70.514999 1.791909 -15.966074 
15.577411 49.111214 -106.461807 21.364164 1.491039 0.048480 -3.411912 -0.161680 -1.620667 -18.011997 0.549380 -0.620858 -19.416368 -2.099530 -3.590312 56.979053 10.721642 -3.338285 -5.788594 -15.737329 -1.465587 -56.624496 -12.884480 9.694066 -57.464993 9.015298 11.278451 8.524705 12.647240 -46.995495 7.611086 14.174596 -1.900835 54.844509 7.409269 14.457705 45.991287 -6.677582 6.588550 -8.534408 -12.637552 53.646339 -23.260830 3.300956 4.593060 43.039028 -4.440248 -6.461193 -39.069820 6.951538 4.885501 -42.405930 0.204599 0.169968 43.140221 4.411086 6.439528 -70.213547 1.538500 -16.044836 
15.577732 49.236362 -106.544060 21.208710 1.579107 1.167882 -3.022069 -0.710686 -2.634224 -17.983316 0.914145 -0.879891 -19.718534 -2.055132 -3.545801 57.070812 10.657911 -3.245611 -5.788594 -15.737329 -1.465587 -56.628109 -12.943713 9.681525 -57.783421 9.053491 11.425826 8.524705 12.647240 -47.015026 7.611086 14.174596 -1.900835 54.687229 7.587189 14.475230 45.878246 -6.647386 6.542331 -8.534408 -12.637552 53.597519 -23.613108 2.920217 3.314759 42.407673 -4.498703 -6.369617 -39.702621 6.764556 5.006248 -42.164001 -0.029228 1.597003 43.288681 4.387603 6.462852 -72.604912 5.004976 -11.965739 
15.725602 49.228676 -106.731949 22.397184 1.882120 -0.850864 -4.100548 -0.539369 -1.212744 -17.573038 0.893437 -0.483146 -20.119860 -2.075044 -3.402777 56.994820 10.559423 -3.021914 -5.788594 -15.737329 -1.465587 -56.718666 -13.472659 9.122150 -57.836422 9.058130 11.438607 8.524705 12.647240 -47.220104 7.611086 14.174596 -1.900835 54.390865 8.033810 14.821383 45.795200 -6.619428 6.508628 -8.534408 -12.637552 53.470558 -25.433298 3.055850 3.763910 41.975410 -4.510756 -6.307560 -40.990726 6.532044 5.356170 -44.046726 -0.205443 0.237372 43.287254 4.401513 6.477686 -69.219498 2.011136 -13.997477 
15.844349 49.250767 -106.905098 23.271194 1.617035 -1.090508 -4.249663 -0.178097 -0.823189 -17.152681 0.621291 -0.395969 -22.112417 -1.752611 -3.584614 57.794193 10.488800 -3.266965 -5.788594 -15.737329 -1.465587 -56.295341 -14.864472 9.125016 -57.603180 9.033146 11.345043 8.524705 12.647240 -47.366589 7.611086 14.174596 -1.900835 54.478802 9.057446 14.432784 45.754490 -6.612213 6.498760 -8.534408 -12.637552 53.499863 -27.154474 3.290532 3.142354 41.600208 -4.540033 -6.265582 -41.230247 6.489867 5.415175 -45.159698 -0.517172 -1.275289 43.298920 4.377999 6.469804 -67.420105 0.681757 -14.275869 
15.930126 49.277649 -107.009438 23.361034 1.787821 -1.035987 -4.361807 -0.603489 -0.565281 -17.884901 0.478141 -0.308105 -21.085999 -1.564302 -3.761117 57.473419 10.770369 -3.378519 -5.788594 -15.737329 -1.465587 -55.959137 -13.919251 9.793612 -57.910789 9.067960 11.482783 8.524705 12.647240 -47.181042 7.611086 14.174596 -1.900835 54.989594 8.125070 13.624050 45.641289 -6.582162 6.462612 -8.534408 -12.637552 53.304546 -27.738571 3.026670 2.644395 41.372803 -4.559565 -6.243433 -41.398365 5.916910 5.084280 -45.342411 -0.986165 -1.328039 43.219753 4.394378 6.449795 -67.103149 1.103567 -13.251952 
